<?xml version="1.0" encoding="UTF-8" standalone="no"?>
<svg
   viewBox="0 0 45 45"
   version="1.1"
   id="svg386"
   xmlns="http://www.w3.org/2000/svg"
   xmlns:svg="http://www.w3.org/2000/svg">
  <defs
     id="defs390" />
  <g
     fill="none"
     fill-rule="evenodd"
     stroke="#000"
     stroke-linecap="round"
     stroke-linejoin="round"
     stroke-width="1.5"
     id="g384"
     style="fill:#008000">
    <g
       fill="#fff"
       stroke-linecap="butt"
       id="g380"
       style="fill:#008000">
      <path
         d="M9 36c3.39-.97 10.11.43 13.5-2 3.39 2.43 10.11 1.03 13.5 2 0 0 1.65.54 3 2-.68.97-1.65.99-3 .5-3.39-.97-10.11.46-13.5-1-3.39 1.46-10.11.03-13.5 1-1.35.49-2.32.47-3-.5 1.35-1.94 3-2 3-2z"
         id="path374"
         style="fill:#008000" />
      <path
         d="M15 32c2.5 2.5 12.5 2.5 15 0 .5-1.5 0-2 0-2 0-2.5-2.5-4-2.5-4 5.5-1.5 6-11.5-5-15.5-11 4-10.5 14-5 15.5 0 0-2.5 1.5-2.5 4 0 0-.5.5 0 2z"
         id="path376"
         style="fill:#008000" />
      <path
         d="M25 8a2.5 2.5 0 1 1-5 0 2.5 2.5 0 1 1 5 0z"
         id="path378"
         style="fill:#008000" />
    </g>
    <path
       stroke-linejoin="miter"
       d="M17.5 26h10M15 30h15m-7.5-14.5v5M20 18h5"
       id="path382"
       style="fill:#008000" />
  </g>
</svg>
