<?xml version="1.0" encoding="UTF-8" standalone="no"?>
<svg
   viewBox="0 0 45 45"
   version="1.1"
   id="svg614"
   xmlns="http://www.w3.org/2000/svg"
   xmlns:svg="http://www.w3.org/2000/svg">
  <defs
     id="defs618" />
  <g
     fill="none"
     fill-rule="evenodd"
     stroke="#000"
     stroke-linecap="round"
     stroke-linejoin="round"
     stroke-width="1.5"
     id="g612"
     style="fill:#008000">
    <path
       stroke-linejoin="miter"
       d="M22.5 11.63V6M20 8h5"
       id="path604"
       style="fill:#008000" />
    <path
       fill="#fff"
       stroke-linecap="butt"
       stroke-linejoin="miter"
       d="M22.5 25s4.5-7.5 3-10.5c0 0-1-2.5-3-2.5s-3 2.5-3 2.5c-1.5 3 3 10.5 3 10.5"
       id="path606"
       style="fill:#008000" />
    <path
       fill="#fff"
       d="M11.5 37c5.5 3.5 15.5 3.5 21 0v-7s9-4.5 6-10.5c-4-6.5-13.5-3.5-16 4V27v-3.5c-3.5-7.5-13-10.5-16-4-3 6 5 10 5 10V37z"
       id="path608"
       style="fill:#008000" />
    <path
       d="M11.5 30c5.5-3 15.5-3 21 0m-21 3.5c5.5-3 15.5-3 21 0m-21 3.5c5.5-3 15.5-3 21 0"
       id="path610"
       style="fill:#008000" />
  </g>
</svg>
