<?xml version="1.0" encoding="UTF-8" standalone="no"?>
<svg
   viewBox="0 0 45 45"
   version="1.1"
   id="svg1037"
   xmlns="http://www.w3.org/2000/svg"
   xmlns:svg="http://www.w3.org/2000/svg">
  <defs
     id="defs1041" />
  <g
     fill="#fff"
     fill-rule="evenodd"
     stroke="#000"
     stroke-linecap="round"
     stroke-linejoin="round"
     stroke-width="1.5"
     id="g1035"
     style="fill:#008000">
    <path
       d="M8 12a2 2 0 1 1-4 0 2 2 0 1 1 4 0zm16.5-4.5a2 2 0 1 1-4 0 2 2 0 1 1 4 0zM41 12a2 2 0 1 1-4 0 2 2 0 1 1 4 0zM16 8.5a2 2 0 1 1-4 0 2 2 0 1 1 4 0zM33 9a2 2 0 1 1-4 0 2 2 0 1 1 4 0z"
       id="path1027"
       style="fill:#008000" />
    <path
       stroke-linecap="butt"
       d="M9 26c8.5-1.5 21-1.5 27 0l2-12-7 11V11l-5.5 13.5-3-15-3 15-5.5-14V25L7 14l2 12z"
       id="path1029"
       style="fill:#008000" />
    <path
       stroke-linecap="butt"
       d="M9 26c0 2 1.5 2 2.5 4 1 1.5 1 1 .5 3.5-1.5 1-1.5 2.5-1.5 2.5-1.5 1.5.5 2.5.5 2.5 6.5 1 16.5 1 23 0 0 0 1.5-1 0-2.5 0 0 .5-1.5-1-2.5-.5-2.5-.5-2 .5-3.5 1-2 2.5-2 2.5-4-8.5-1.5-18.5-1.5-27 0z"
       id="path1031"
       style="fill:#008000" />
    <path
       fill="none"
       d="M11.5 30c3.5-1 18.5-1 22 0M12 33.5c6-1 15-1 21 0"
       id="path1033"
       style="fill:#008000" />
  </g>
</svg>
